<svg width="74" height="87" viewBox="0 0 74 87" fill="none" xmlns="http://www.w3.org/2000/svg">
<path fill-rule="evenodd" clip-rule="evenodd" d="M0 72.1855C1.79923 71.3184 3.63196 70.5216 5.50088 69.8071C6.27046 69.4298 7.03186 69.0344 7.79328 68.639C9.88965 67.5504 11.9862 66.4618 14.2542 65.75C14.4441 65.4884 14.6995 65.3291 15.0096 65.2549C15.2689 65.1172 15.5258 64.9729 15.7826 64.8286C17.0216 64.1324 18.2601 63.4365 19.7714 63.4894L19.9925 63.46C20.6612 63.3712 21.3296 63.2825 21.9984 63.1942C22.3583 62.3718 22.427 61.5256 22.3546 60.6253C22.2504 59.3287 22.1902 58.0286 22.1299 56.7284C22.1051 56.1941 22.0804 55.6597 22.0525 55.1256C21.9978 55.0073 21.9442 54.8884 21.8906 54.7695C21.7732 54.509 21.6558 54.2486 21.5257 53.9945C20.3272 51.6575 19.7081 49.1639 19.538 46.5478C19.4914 46.2973 19.4446 46.0469 19.3977 45.7965C19.3509 45.5461 19.3041 45.2956 19.2575 45.0451C18.9636 44.7701 18.5914 44.6585 18.2178 44.5464C17.7994 44.4209 17.3791 44.2949 17.0648 43.9383C16.1914 42.948 15.9232 41.7411 15.7445 40.4897C15.3969 39.8591 15.104 39.2074 14.9994 38.4847C13.8604 36.002 14.4066 33.542 15.1394 31.1009C15.2944 30.5857 15.6474 29.9053 16.1153 29.8593C17.0291 29.7686 17.0211 29.2536 17.0128 28.7156C17.0117 28.6428 17.0106 28.5695 17.0117 28.4968L16.9752 27.5737C16.9066 26.9426 16.8382 26.3127 16.7698 25.6828C16.7014 25.0529 16.633 24.423 16.5643 23.7919C16.0884 21.2521 16.3891 18.745 16.6897 16.2392C16.7456 15.7733 16.8015 15.3074 16.8524 14.8414C16.8572 14.7959 16.8792 14.752 16.9114 14.7092C17.1196 14.4324 17.2467 14.1025 17.2483 13.7552L17.2488 13.6891C17.2658 12.9894 17.5815 12.4098 17.8972 11.8302C18.0498 11.55 18.2024 11.2699 18.3213 10.9761C18.6034 10.4642 18.7682 10.1051 18.9101 9.79578C18.9196 9.77514 18.929 9.75472 18.9382 9.7345C19.3621 8.81193 20 8.00637 20.7988 7.38609C20.8562 7.32172 20.9133 7.25696 20.9705 7.19219C21.6058 6.472 22.2414 5.75144 23.2677 5.574L23.2779 5.56425C23.8632 4.98135 24.5467 4.5095 25.2951 4.1655C25.3418 4.14403 25.3884 4.12247 25.4351 4.1009C25.6334 4.00927 25.8318 3.91762 26.0333 3.83342C26.1105 3.81066 26.1894 3.80254 26.2699 3.80958C26.2725 3.80146 26.2752 3.79333 26.2784 3.78575C26.3868 3.50296 26.6706 3.35128 26.9711 3.35507C27.1032 3.35669 27.2246 3.25716 27.371 3.13719C27.4207 3.09646 27.4732 3.05336 27.5301 3.01107C27.709 2.87788 27.8812 2.73107 28.0536 2.58399C28.556 2.15558 29.0611 1.72491 29.7436 1.62207C29.7564 1.60894 29.77 1.59688 29.7837 1.58482C29.8022 1.56853 29.8206 1.55222 29.837 1.53323C29.8869 1.51373 29.9507 1.48881 30.0011 1.4693C30.1926 1.47849 30.3338 1.36416 30.475 1.24984C30.6336 1.12141 30.7922 0.992994 31.0221 1.03971C32.6256 0.477936 34.2415 -0.0090809 35.9411 0.000128527C36.4304 0.00283718 36.9196 0.00283718 37.4089 0.000128527C39.1085 -0.0090809 40.7244 0.477936 42.328 1.03971C42.5579 0.992695 42.7165 1.12121 42.8752 1.24975C43.0163 1.36411 43.1574 1.47849 43.3489 1.4693C43.3988 1.48881 43.4626 1.51373 43.5131 1.53323C43.5298 1.55272 43.5486 1.56938 43.5675 1.58611C43.5807 1.59774 43.5939 1.60941 43.6064 1.62207C44.2889 1.72491 44.794 2.15558 45.2964 2.58399C45.4689 2.73107 45.641 2.87788 45.8199 3.01107C45.8767 3.05328 45.9292 3.09628 45.9788 3.13694C46.1254 3.25703 46.2471 3.35669 46.379 3.35507C46.6789 3.35128 46.9627 3.50296 47.0716 3.78575C47.0729 3.78981 47.0744 3.79374 47.0759 3.79766C47.0773 3.80159 47.0788 3.80552 47.0801 3.80958C47.1606 3.80254 47.2395 3.81066 47.3167 3.83342C47.5178 3.91746 47.7158 4.00891 47.9138 4.10034C48.2951 4.27647 48.6763 4.45256 49.0796 4.57559L49.0898 4.58534C49.5872 5.08103 50.1596 5.49545 50.7894 5.80261C51.4273 6.11334 51.9018 6.65096 52.3762 7.18852C52.4344 7.25452 52.4927 7.32052 52.5512 7.38609L53.3447 8.00204C54.3793 8.96993 54.5349 9.45099 54.909 10.6082C54.9464 10.7237 54.9859 10.846 55.0287 10.9761C55.1476 11.2699 55.3002 11.55 55.4528 11.8301C55.7685 12.4096 56.0842 12.989 56.1012 13.6891L56.1017 13.7552C56.1033 14.1025 56.2305 14.4324 56.4386 14.7092C56.4708 14.752 56.4928 14.7959 56.4976 14.8414C56.5485 15.3076 56.6044 15.7737 56.6603 16.2398C56.9415 18.584 57.2228 20.9292 56.8683 23.3011L56.3742 27.6235C56.3691 27.7365 56.3623 27.8849 56.3555 28.0334C56.3486 28.1818 56.3418 28.3302 56.3367 28.4432C56.3397 28.5334 56.3383 28.6249 56.3369 28.7157C56.3287 29.2538 56.3208 29.7689 57.2342 29.8593C57.702 29.9053 58.0556 30.5857 58.2101 31.1009C58.9429 33.542 59.4885 36.0014 58.3501 38.4847C58.2455 39.2079 57.9531 39.8591 57.6049 40.4897C57.4263 41.7411 57.158 42.948 56.2846 43.9383C55.9705 44.2945 55.5503 44.4204 55.1321 44.5458C54.7583 44.6579 54.386 44.7695 54.092 45.0445C54.0453 45.2951 53.9985 45.5456 53.9517 45.7962C53.9049 46.0467 53.8581 46.2973 53.8114 46.5478C53.6414 49.1644 53.0223 51.6575 51.8238 53.9945C51.6935 54.2483 51.5763 54.5085 51.4591 54.7688C51.4055 54.8879 51.3518 55.0071 51.2969 55.1256C51.2691 55.6597 51.2444 56.1941 51.2196 56.7284C51.1593 58.0286 51.0991 59.3287 50.9949 60.6253C50.9225 61.5256 50.9911 62.3713 51.3511 63.1942C52.019 63.2824 52.6865 63.371 53.3543 63.4597L53.5781 63.4894C55.0899 63.4364 56.3291 64.1329 57.5683 64.8293C57.8247 64.9734 58.0811 65.1175 58.3399 65.2549C58.6505 65.3286 58.9059 65.4884 59.0953 65.75C61.3624 66.4615 63.4579 67.5496 65.5535 68.6378C66.3158 69.0336 67.078 69.4294 67.8486 69.8071C69.9433 70.6079 71.9925 71.5121 74 72.5027C64.3067 81.5043 51.3733 87 37.1694 87C22.7993 87 9.72968 81.375 0 72.1855ZM33.0438 14.9463L33.0451 14.9465C33.0436 14.9434 33.0412 14.9408 33.0388 14.9383C33.037 14.9364 33.0353 14.9345 33.0339 14.9324C33.0328 14.9367 33.0323 14.9411 33.0312 14.9454C33.0356 14.9454 33.0395 14.9459 33.0438 14.9463ZM40.3151 14.9319C40.3118 14.9373 40.307 14.9411 40.3038 14.9465L40.3177 14.9449L40.3177 14.9448C40.3167 14.9405 40.3156 14.9362 40.3151 14.9319Z" fill="#ADADAF" fill-opacity="0.4"/>
</svg>
