<svg width="14" height="14" viewBox="0 0 14 14" fill="none" xmlns="http://www.w3.org/2000/svg">
<path d="M12.3333 2.73336C12.3333 2.35999 12.3331 2.17317 12.2604 2.03056C12.1965 1.90512 12.0949 1.8032 11.9694 1.73929C11.8268 1.66663 11.6398 1.66663 11.2664 1.66663H2.73306C2.35969 1.66663 2.1732 1.66663 2.03059 1.73929C1.90515 1.8032 1.80323 1.90512 1.73932 2.03056C1.66666 2.17317 1.66666 2.35999 1.66666 2.73336V3.22486C1.66666 3.38792 1.66666 3.46952 1.68508 3.54624C1.70141 3.61426 1.72841 3.67924 1.76496 3.73889C1.80618 3.80615 1.86393 3.8639 1.97916 3.97913L5.35432 7.35429C5.46961 7.46958 5.52695 7.52692 5.56818 7.59419C5.60473 7.65384 5.6321 7.71904 5.64843 7.78707C5.66666 7.86301 5.66666 7.94364 5.66666 8.1034V11.274C5.66666 11.8454 5.66666 12.1314 5.78702 12.3034C5.89212 12.4537 6.05426 12.5539 6.23567 12.5807C6.44342 12.6114 6.69913 12.4838 7.21028 12.2282L7.74361 11.9615C7.95765 11.8545 8.06441 11.8008 8.1426 11.721C8.21175 11.6504 8.26464 11.5656 8.29686 11.4722C8.3333 11.3666 8.33332 11.2466 8.33332 11.0073V8.10836C8.33332 7.9453 8.33332 7.86379 8.35174 7.78707C8.36807 7.71904 8.39508 7.65384 8.43163 7.59419C8.47258 7.52737 8.52977 7.47018 8.64353 7.35642L8.64582 7.35429L12.021 3.97913C12.1363 3.86382 12.1936 3.80617 12.2348 3.73889C12.2714 3.67924 12.2988 3.61426 12.3151 3.54624C12.3333 3.4703 12.3333 3.38958 12.3333 3.22983V2.73336Z" stroke="#F2F5F7" stroke-width="1.5" stroke-linecap="round" stroke-linejoin="round"/>
</svg>
